<svg width="320" height="160" viewBox="0 0 320 160" fill="none" xmlns="http://www.w3.org/2000/svg">
<g opacity="0.15" clip-path="url(#clip0_2003_213)">
<path d="M191.938 109.932C191.369 111.105 197.143 118.288 199.7 118.02C201.528 117.829 225.323 92.6803 226.975 92.7658C228.053 92.8215 241.473 113.85 243.257 113.835C244.679 113.823 273.95 82.0824 275.474 82.6268C277.182 83.237 284.172 93.1169 284.324 89.2303C285.293 67.7834 286.382 61.5105 285.412 60.9116C283.858 59.9523 265.114 65.3895 256.348 66.4738C252.132 66.9297 264.524 72.4458 264.149 74.7945C263.903 76.3389 246.41 93.5572 245.672 93.8992C244.529 94.4288 229.768 75.779 227.914 75.8593C226.174 75.9346 192.853 108.046 191.938 109.932Z" stroke="#73AFD7" stroke-linecap="round"/>
<path d="M170.066 159.418C169.036 163.368 159.282 167.623 154.566 158.717C149.85 149.813 159.553 143.35 163.534 145.807M150.048 157.126C151.906 155.501 158.034 155.082 160.61 153.175M151.363 161.188C153.578 159.491 159.315 158.984 161.336 157.326M121.785 148.473C121.329 149.704 135.956 186.091 137.032 186.239C138.619 186.457 197.126 164.045 197.349 162.558C197.543 161.267 181.783 126.19 180.461 125.593C179.149 125.001 122.376 146.881 121.785 148.473ZM134.158 150.148C134.915 151.793 134.707 155.057 131.749 155.692C130.676 155.922 138.205 173.494 138.842 173.399C142.647 172.833 144.113 174.566 145.197 176.785C145.318 177.033 185.517 161.98 185.172 161.194C183.905 158.312 184.493 155.903 186.909 154.855C188.047 154.362 180.232 137.396 179.836 137.473C177.055 138.01 175.198 136.133 174.654 134.205C174.544 133.819 133.753 149.266 134.158 150.148Z" stroke="#73AFD7" stroke-linecap="round"/>
<path d="M170.066 -0.581772C169.036 3.36815 159.282 7.62271 154.566 -1.28339C149.85 -10.1873 159.553 -16.6504 163.534 -14.1929M150.048 -2.87446C151.906 -4.49905 158.034 -4.91807 160.61 -6.8246M151.363 1.18835C153.578 -0.50943 159.315 -1.0164 161.336 -2.67421M121.785 -11.5266C121.329 -10.2956 135.956 26.0912 137.032 26.239C138.619 26.4569 197.126 4.04474 197.349 2.55844C197.543 1.26724 181.783 -33.8097 180.461 -34.407C179.149 -34.9993 122.376 -13.119 121.785 -11.5266ZM134.158 -9.85242C134.915 -8.20712 134.707 -4.94327 131.749 -4.30807C130.676 -4.0776 138.205 13.4937 138.842 13.3989C142.647 12.8326 144.113 14.5663 145.197 16.7853C145.318 17.0331 185.517 1.98029 185.172 1.19441C183.905 -1.68823 184.493 -4.09665 186.909 -5.14494C188.047 -5.63849 180.232 -22.6038 179.836 -22.5272C177.055 -21.9896 175.198 -23.8669 174.654 -25.7948C174.544 -26.1812 133.753 -10.7337 134.158 -9.85242Z" stroke="#73AFD7" stroke-linecap="round"/>
<path d="M133.607 58.6745C133.394 59.4638 131.034 59.5427 128.932 59.577C128.625 59.582 126.52 63.3955 126.615 64.8584C126.711 66.3213 134 66.6331 137.532 63.51C138.905 62.2959 139.896 65.1603 141.245 65.2065C142.46 65.2482 145.519 61.6909 145.36 60.401C145.196 59.0727 142.851 58.9708 143.458 57.1773C143.95 55.7242 148.286 48.5721 142.588 42.779C136.944 37.0402 130.988 40.9585 127.16 43.8491C126.14 44.6187 121.92 39.9591 121.965 39.3779C122.044 38.3339 125.96 38.8685 126.397 38.1107C126.655 37.6636 128.748 33.6645 128.241 33.383C123.681 30.8539 117.646 35.3109 117.279 35.3509C116.406 35.4463 115.746 33.0748 114.243 33.3543C112.932 33.5981 110.738 35.8968 110.371 37.3136C109.942 38.9672 113.224 39.9037 112.903 40.6434C111.881 42.9975 109.662 48.4992 113.653 52.8743C117.644 57.2493 124.051 54.9174 126.505 52.6367C126.696 52.4593 133.802 57.9531 133.607 58.6745ZM117.499 44.072C118.115 43.6726 122.658 46.9992 122.609 47.9477C122.56 48.8962 119.733 49.3887 118.325 48.2458C116.916 47.1028 116.882 44.4716 117.499 44.072ZM132.629 48.553C132.434 48.7874 133.009 49.5804 133.85 50.449C135.118 51.759 136.99 53.2407 137.737 53.2359C138.526 53.2309 139.215 50.4666 137.684 48.8056C135.814 46.777 133.12 47.9653 132.629 48.553Z" stroke="#73AFD7" stroke-linecap="round"/>
<path d="M35.9329 107.935C35.3795 107.671 35.6365 105.933 35.8916 104.39C35.929 104.165 33.399 102.102 32.3081 101.971C31.217 101.84 30.014 107.132 31.8447 110.144C32.5564 111.315 30.3127 111.648 30.0986 112.629C29.9055 113.513 32.1194 116.238 33.0913 116.299C34.0923 116.361 34.4805 114.659 35.7214 115.349C36.7269 115.908 41.4199 120.061 46.4507 116.686C51.4341 113.342 49.3409 108.447 47.7213 105.249C47.2902 104.398 51.2881 101.948 51.7106 102.06C52.4695 102.261 51.5527 105.053 52.053 105.477C52.348 105.727 55.0164 107.808 55.2916 107.475C57.7645 104.484 55.2849 99.457 55.3042 99.1836C55.3506 98.531 57.1868 98.373 57.1814 97.2351C57.1765 96.2425 55.7751 94.3215 54.7798 93.8587C53.6182 93.3186 52.4897 95.5917 51.9873 95.2553C50.3887 94.1847 46.6294 91.8073 42.8718 94.1281C39.1143 96.4489 39.9778 101.457 41.3313 103.566C41.4365 103.73 36.4386 108.177 35.9329 107.935ZM48.8467 98.1487C49.0588 98.6544 46.0002 101.523 45.3076 101.357C44.6151 101.191 44.6294 99.0553 45.6599 98.181C46.6904 97.3066 48.6344 97.6429 48.8467 98.1487ZM43.5239 108.607C43.3773 108.432 42.7159 108.744 41.9635 109.24C40.8286 109.988 39.4866 111.156 39.3904 111.702C39.2888 112.281 41.2344 113.164 42.6631 112.271C44.408 111.181 43.8917 109.046 43.5239 108.607Z" stroke="#73AFD7" stroke-linecap="round"/>
<path d="M256.531 41.715C255.767 41.924 254.56 40.0332 253.516 38.3317C253.363 38.083 249.153 38.2146 247.974 39.0029C246.795 39.7913 250.057 45.9015 254.378 47.2713C256.058 47.8038 254.139 50.005 254.752 51.1301C255.305 52.1439 259.761 52.9164 260.764 52.1601C261.797 51.3812 260.749 49.4148 262.544 49.0399C263.999 48.7362 272.082 48.8071 274.179 41.3364C276.257 33.9358 270.098 30.9707 265.828 29.2449C264.691 28.7855 266.553 23.0731 267.061 22.827C267.974 22.385 269.418 25.8451 270.264 25.8347C270.763 25.8286 275.123 25.5976 275.114 25.046C275.028 20.0902 268.379 17.3217 268.169 17.0418C267.667 16.3738 269.334 14.6825 268.373 13.5901C267.536 12.6371 264.551 11.9596 263.187 12.3476C261.596 12.8005 262.397 15.9377 261.623 16.0344C259.158 16.3423 253.479 17.2008 251.745 22.5877C250.01 27.9745 255.059 32.0794 258.154 32.9777C258.395 33.0475 257.229 41.5239 256.531 41.715ZM260.973 21.4563C261.605 21.7661 261.015 27.0951 260.197 27.5156C259.379 27.9361 257.601 25.8651 257.877 24.1583C258.154 22.4517 260.341 21.1466 260.973 21.4563ZM264.533 36.0003C264.242 35.9543 263.856 36.8094 263.535 37.9185C263.051 39.5912 262.715 41.8416 263.08 42.4491C263.465 43.0921 266.113 42.3126 266.764 40.2546C267.559 37.7409 265.262 36.1155 264.533 36.0003Z" stroke="#73AFD7" stroke-linecap="round"/>
<path d="M282.905 114.839C285.278 112.78 286.237 110.89 284.742 109.151C283.016 107.143 280.048 109.74 282.176 111.494C284.525 113.431 288.967 110.509 288.083 107.067M263.594 124.341C264.34 121.61 268.185 117.926 271.193 117.465M258.751 126.602C256.474 125.863 254.29 126.203 253.71 127.22C253.439 127.694 257.522 130.518 257.423 131.952C257.337 133.189 257.307 136.546 258.74 139.044C259.538 140.437 257.979 141.997 257.166 143.038C256.116 144.383 261.38 149.012 262.528 148.036C263.712 147.029 265.031 145.518 265.938 145.624C266.664 145.709 270.021 146.519 273.26 145.467C274.856 144.949 276.31 148.371 277.696 148.27C278.442 148.215 280.748 145.825 280.66 144.755C280.546 143.358 277.983 142.364 279.416 141.48C281.019 140.491 285.248 136.195 286.051 134.692C286.373 134.087 287.217 134.982 289.038 135.379C290.178 135.628 293.656 132.134 292.531 131.035C291.406 129.935 289.153 127.52 289.057 125.906C289.002 124.993 289.712 116.144 278.674 113.194C270.684 111.059 261.679 118.369 258.751 126.602ZM262.078 133.893C262.53 133.484 263.342 133.644 263.89 134.25C264.438 134.856 264.516 135.68 264.065 136.089C263.613 136.498 262.801 136.338 262.252 135.732C261.704 135.126 261.626 134.302 262.078 133.893Z" stroke="#73AFD7" stroke-linecap="round"/>
<path d="M94.9071 68.0068C98.2234 69.406 100.664 69.4055 101.729 66.8988C102.959 64.0054 98.7888 62.2677 98.0212 65.4495C97.1738 68.9616 102.415 72.0776 105.553 69.3041M75.4506 52.7429C78.6584 52.068 84.3945 54.1478 86.3662 57.0711M70.6982 48.8503C70.3364 46.055 68.8988 43.9355 67.5542 43.8679C66.9269 43.8364 66.0188 49.6505 64.4796 50.3132C63.1516 50.885 59.6475 52.6504 57.7623 55.4973C56.7117 57.084 54.3164 56.2756 52.8312 55.9766C50.9123 55.5902 48.7146 63.6146 50.2975 64.3016C51.9316 65.011 54.156 65.5918 54.4961 66.6044C54.7681 67.4146 55.5925 71.3855 58.2926 74.2361C59.623 75.6406 56.7881 79.0044 57.581 80.4108C58.0078 81.1676 61.6365 82.3187 62.7046 81.6535C64.0998 80.7847 63.8613 77.5527 65.491 78.5894C67.3135 79.7488 73.8762 81.9072 75.8363 81.9481C76.6252 81.9645 76.1135 83.3327 76.6045 85.4641C76.9116 86.7979 82.2687 88.594 82.8529 86.8197C83.4371 85.0454 84.8291 81.3785 86.4582 80.4137C87.3806 79.8674 96.9282 75.8795 94.5171 62.6687C92.7715 53.1052 80.7063 47.5287 70.6982 48.8503ZM64.7716 56.2582C65.4208 56.5156 65.6575 57.4569 65.2998 58.3589C64.9421 59.2609 64.1247 59.7842 63.4756 59.5268C62.8264 59.2694 62.5896 58.3281 62.9473 57.4261C63.3049 56.5241 64.1223 56.0008 64.7716 56.2582Z" stroke="#73AFD7" stroke-linecap="round"/>
<path d="M6.01318 69.6085C6.64734 70.0105 24.2686 62.1233 30.2054 59.6328C34.2974 67.7225 32.9517 77.4492 27.4939 84.4952C24.739 88.0519 20.9363 90.9256 16.2563 92.561C1.77539 97.6212 -19.6265 90.8651 -20.3342 69.3446C-20.9977 49.1714 0.234861 44.2707 9.79492 49.623C8.92749 54.1998 4.7268 68.7931 6.01318 69.6085ZM27.4939 84.4952L6.01318 69.6085M19.6632 42.7299C18.4891 45.6795 12.9784 60.2627 13.6145 60.8889C14.1787 61.4022 25.3745 54.3949 29.8535 51.76C33.5986 49.557 20.9795 39.4228 19.6632 42.7299Z" stroke="#73AFD7" stroke-linecap="round"/>
<path d="M326.013 69.6085C326.647 70.0105 344.268 62.1233 350.205 59.6328C354.297 67.7225 352.951 77.4492 347.493 84.4952C344.739 88.0519 340.936 90.9256 336.256 92.561C321.775 97.6212 300.373 90.8651 299.665 69.3446C299.002 49.1714 320.234 44.2707 329.794 49.623C328.927 54.1998 324.726 68.7931 326.013 69.6085ZM347.493 84.4952L326.013 69.6085M339.663 42.7299C338.489 45.6795 332.978 60.2627 333.614 60.8889C334.178 61.4022 345.374 54.3949 349.853 51.76C353.598 49.557 340.979 39.4228 339.663 42.7299Z" stroke="#73AFD7" stroke-linecap="round"/>
<path d="M168.304 104.12C165.567 106.107 161.9 107.615 157.09 104.134C152.28 100.653 149.789 102.022 147.186 103.38C144.583 104.738 155.118 104.768 154.603 93.1055C154.088 81.4433 164.841 79.9188 168.095 86.78M148.095 92.4861C152.703 92.136 159.033 95.0117 162.945 94.489M162.33 72.9547C151.834 71.8178 137.403 79.1146 136.125 94.3639C134.847 109.613 148.048 116.227 158.288 116.743C167.799 117.222 181.481 110.885 183.08 96.9917C184.804 82.0082 172.825 74.0916 162.33 72.9547Z" stroke="#73AFD7" stroke-linecap="round"/>
<path d="M202.75 28.8938C202.706 40.4815 178.428 41.7845 174.443 33.0123M201.829 61.4912C211.198 68.0718 223.938 65.0137 225.126 60.1416C225.721 57.7044 226.627 44.3988 226.262 43.501C221.983 32.954 204.788 35.2367 203.251 37.706C197.472 48.6838 177.817 47.7337 174.753 40.0607M203.391 43.3018C199.745 55.7712 177.931 54.6465 174.784 46.9672M203.56 51.6948C200.579 59.1918 181.699 64.6841 174.931 53.2345M203.782 49.4937C207.206 51.9788 223.51 54.9574 226.359 44.7704M203.631 55.8901C207.999 58.2861 219.333 61.4714 225.816 53.683M188.412 21.8797C180.818 22.6016 173.731 25.5498 174.451 33.0607C175.294 41.8495 173.999 58.7955 176.105 62.0678C177.673 64.5042 183.819 67.6187 191.409 66.3098C198.999 65.0009 203.359 60.8432 203.559 58.2286C203.758 55.6141 203.213 31.1869 202.738 28.8679C201.897 24.7728 195.823 21.1751 188.412 21.8797Z" stroke="#73AFD7" stroke-linecap="round"/>
<path d="M33.8883 154.89C35.9607 151.712 48.3393 147.694 50.0383 148.68C51.3354 149.433 64.5521 189.514 65.1003 191.135C65.3923 191.999 46.9916 197.68 46.6576 196.033C44.0386 183.124 32.9223 156.371 33.8883 154.89ZM86.6719 153.222C88.9035 151.068 98.3086 148.318 100.008 149.304C101.305 150.057 108.892 175.359 109.441 176.98C109.733 177.844 95.1892 182.917 94.7253 181.303C93.0277 175.398 85.2605 154.584 86.6719 153.222ZM50.5797 130.354C52.0161 126.853 67.2825 120.722 68.9814 121.708C70.2785 122.461 88.1245 182.112 88.6726 183.733C88.9648 184.597 70.1061 191.069 69.6948 189.441C66.5005 176.795 49.2715 133.543 50.5797 130.354Z" stroke="#73AFD7" stroke-linecap="round"/>
<path d="M33.8883 -5.11048C35.9607 -8.28835 48.3393 -12.3064 50.0383 -11.3203C51.3354 -10.5674 64.5521 29.5141 65.1003 31.1351C65.3923 31.999 46.9916 37.6797 46.6576 36.0332C44.0386 23.1235 32.9223 -3.62933 33.8883 -5.11048ZM86.6719 -6.77833C88.9035 -8.93183 98.3086 -11.6822 100.008 -10.6961C101.305 -9.94315 108.892 15.3588 109.441 16.9799C109.733 17.8438 95.1892 22.9166 94.7253 21.3029C93.0277 15.3977 85.2605 -5.41639 86.6719 -6.77833ZM50.5797 -29.6459C52.0161 -33.1465 67.2825 -39.278 68.9814 -38.2918C70.2785 -37.5389 88.1245 22.1122 88.6726 23.7332C88.9648 24.5971 70.1061 31.0694 69.6948 29.4411C66.5005 16.7948 49.2715 -26.4575 50.5797 -29.6459Z" stroke="#73AFD7" stroke-linecap="round"/>
<path d="M308.394 114.647C302.171 116.795 298.066 137.996 295.443 145.823C292.948 153.273 286.685 171.721 288.247 177.57C289.742 183.173 301.72 185.564 306.679 187.147C312.251 188.924 322.964 193.528 328.851 189.196C333.407 185.843 337.673 162.829 339.704 156.238C342.143 148.327 347.477 132.943 345.612 127.24C343.392 120.453 334.314 119.501 328.221 117.521C322.273 115.588 314.033 112.7 308.394 114.647ZM303.072 144.309C302.162 144.563 300.485 150.474 300.825 151.29C301.166 152.11 307.283 153.862 307.994 153.494C308.721 153.119 310.282 146.992 309.957 146.4C309.701 145.935 303.883 144.082 303.072 144.309ZM310.356 121.849C309.446 122.104 305.693 135.056 306.033 135.872C306.374 136.692 334.594 144.777 335.305 144.409C336.032 144.034 339.485 130.823 339.16 130.232C338.904 129.766 311.167 121.623 310.356 121.849ZM299.519 156.641C298.617 156.924 297.13 162.884 297.496 163.689C297.864 164.498 304.033 166.056 304.733 165.666C305.447 165.268 306.811 159.095 306.468 158.514C306.197 158.057 300.323 156.389 299.519 156.641ZM311.792 159.952C310.89 160.235 309.403 166.196 309.769 167.001C310.136 167.809 316.306 169.367 317.005 168.978C317.72 168.579 319.084 162.406 318.74 161.825C318.47 161.368 312.595 159.7 311.792 159.952ZM308.572 172.448C307.67 172.731 306.183 178.692 306.549 179.497C306.916 180.305 313.086 181.863 313.785 181.474C314.499 181.075 315.864 174.902 315.52 174.321C315.249 173.864 309.375 172.196 308.572 172.448ZM323.64 163.226C322.738 163.509 317.93 181.646 318.296 182.451C318.663 183.259 324.99 185.221 325.689 184.831C326.404 184.433 331.325 165.825 330.982 165.244C330.711 164.786 324.444 162.974 323.64 163.226ZM296.27 168.962C295.369 169.245 293.881 175.205 294.247 176.01C294.615 176.819 300.785 178.377 301.484 177.987C302.198 177.589 303.563 171.415 303.219 170.835C302.948 170.377 297.074 168.71 296.27 168.962ZM314.776 147.689C313.887 148.008 312.644 154.024 313.042 154.813C313.442 155.606 319.671 156.915 320.353 156.497C321.051 156.071 322.162 149.847 321.795 149.281C321.506 148.835 315.568 147.405 314.776 147.689ZM327.261 150.793C326.357 151.068 324.82 157.016 325.18 157.824C325.54 158.636 331.697 160.244 332.399 159.86C333.117 159.468 334.533 153.306 334.194 152.722C333.927 152.263 328.066 150.547 327.261 150.793Z" stroke="#73AFD7" stroke-linecap="round"/>
<path d="M-11.6057 114.647C-17.8295 116.795 -21.9341 137.996 -24.5566 145.823C-27.0525 153.273 -33.3147 171.721 -31.7533 177.57C-30.2579 183.173 -18.2802 185.564 -13.3207 187.147C-7.74927 188.924 2.96423 193.528 8.85083 189.196C13.4067 185.843 17.6729 162.829 19.7042 156.238C22.1426 148.327 27.4773 132.943 25.6119 127.24C23.3922 120.453 14.3145 119.501 8.22083 117.521C2.27319 115.588 -5.96716 112.7 -11.6057 114.647ZM-16.9277 144.309C-17.8381 144.563 -19.5154 150.474 -19.1753 151.29C-18.8339 152.11 -12.7172 153.862 -12.0059 153.494C-11.2791 153.119 -9.71777 146.992 -10.0427 146.4C-10.2988 145.935 -16.1167 144.082 -16.9277 144.309ZM-9.64404 121.849C-10.5544 122.104 -14.3071 135.056 -13.9672 135.872C-13.6257 136.692 14.594 144.777 15.3053 144.409C16.032 144.034 19.4846 130.823 19.1597 130.232C18.9037 129.766 -8.83301 121.623 -9.64404 121.849ZM-20.4807 156.641C-21.3826 156.924 -22.8698 162.884 -22.5038 163.689C-22.1362 164.498 -15.9666 166.056 -15.2673 165.666C-14.553 165.268 -13.1886 159.095 -13.5323 158.514C-13.8031 158.057 -19.6774 156.389 -20.4807 156.641ZM-8.20813 159.952C-9.10999 160.235 -10.5972 166.196 -10.2312 167.001C-9.86365 167.809 -3.69385 169.367 -2.99475 168.978C-2.2804 168.579 -0.916016 162.406 -1.25977 161.825C-1.53052 161.368 -7.40479 159.7 -8.20813 159.952ZM-11.4285 172.448C-12.3302 172.731 -13.8174 178.692 -13.4514 179.497C-13.084 180.305 -6.91418 181.863 -6.21497 181.474C-5.50073 181.075 -4.13623 174.902 -4.47998 174.321C-4.75073 173.864 -10.625 172.196 -11.4285 172.448ZM3.64014 163.226C2.7384 163.509 -2.07031 181.646 -1.70435 182.451C-1.33679 183.259 4.99011 185.221 5.68933 184.831C6.40369 184.433 11.3253 165.825 10.9816 165.244C10.7108 164.786 4.4436 162.974 3.64014 163.226ZM-23.7296 168.962C-24.6315 169.245 -26.1187 175.205 -25.7527 176.01C-25.3851 176.819 -19.2155 178.377 -18.5162 177.987C-17.8019 177.589 -16.4375 171.415 -16.7812 170.835C-17.052 170.377 -22.9263 168.71 -23.7296 168.962ZM-5.224 147.689C-6.11353 148.008 -7.35645 154.024 -6.95789 154.813C-6.55762 155.606 -0.329468 156.915 0.353149 156.497C1.05078 156.071 2.16223 149.847 1.79504 149.281C1.50586 148.835 -4.43164 147.405 -5.224 147.689ZM7.26099 150.793C6.35681 151.068 4.82031 157.016 5.17957 157.824C5.54028 158.636 11.6969 160.244 12.3993 159.86C13.1169 159.468 14.5325 153.306 14.1936 152.722C13.9265 152.263 8.06641 150.547 7.26099 150.793Z" stroke="#73AFD7" stroke-linecap="round"/>
<path d="M308.394 -45.3534C302.171 -43.2045 298.066 -22.0042 295.443 -14.1766C292.948 -6.72685 286.685 11.7206 288.247 17.5704C289.742 23.1727 301.72 25.5643 306.679 27.1466C312.251 28.9241 322.964 33.5284 328.851 29.196C333.407 25.843 337.673 2.82894 339.704 -3.76196C342.143 -11.6729 347.477 -27.0565 345.612 -32.7599C343.392 -39.5468 334.314 -40.4989 328.221 -42.479C322.273 -44.4116 314.033 -47.3003 308.394 -45.3534ZM303.072 -15.6909C302.162 -15.4366 300.485 -9.52628 300.825 -8.71C301.166 -7.89039 307.283 -6.13813 307.994 -6.50552C308.721 -6.88094 310.282 -13.0082 309.957 -13.5995C309.701 -14.0652 303.883 -15.9175 303.072 -15.6909ZM310.356 -38.1505C309.446 -37.8961 305.693 -24.9443 306.033 -24.1281C306.374 -23.3085 334.594 -15.2231 335.305 -15.5905C336.032 -15.966 339.485 -29.1769 339.16 -29.7681C338.904 -30.2338 311.167 -38.3771 310.356 -38.1505ZM299.519 -3.35896C298.617 -3.07597 297.13 2.8843 297.496 3.68943C297.864 4.49784 304.033 6.05599 304.733 5.66631C305.447 5.2681 306.811 -0.905357 306.468 -1.48605C306.197 -1.94346 300.323 -3.61103 299.519 -3.35896ZM311.792 -0.0475998C310.89 0.23539 309.403 6.19566 309.769 7.00074C310.136 7.80915 316.306 9.36735 317.005 8.97767C317.72 8.57946 319.084 2.406 318.74 1.82526C318.47 1.36793 312.595 -0.299721 311.792 -0.0475998ZM308.572 12.4483C307.67 12.7313 306.183 18.6915 306.549 19.4966C306.916 20.305 313.086 21.8633 313.785 21.4735C314.499 21.0754 315.864 14.9019 315.52 14.3212C315.249 13.8638 309.375 12.1962 308.572 12.4483ZM323.64 3.2257C322.738 3.50869 317.93 21.6457 318.296 22.4507C318.663 23.2591 324.99 25.2211 325.689 24.8314C326.404 24.4332 331.325 5.82453 330.982 5.24384C330.711 4.78648 324.444 2.97358 323.64 3.2257ZM296.27 8.96181C295.369 9.24485 293.881 15.2051 294.247 16.0102C294.615 16.8186 300.785 18.3768 301.484 17.9871C302.198 17.5889 303.563 11.4154 303.219 10.8347C302.948 10.3773 297.074 8.70974 296.27 8.96181ZM314.776 -12.3106C313.887 -11.9916 312.644 -5.97631 313.042 -5.18664C313.442 -4.39368 319.671 -3.08511 320.353 -3.50265C321.051 -3.92924 322.162 -10.1526 321.795 -10.719C321.506 -11.1651 315.568 -12.5948 314.776 -12.3106ZM327.261 -9.20736C326.357 -8.93174 324.82 -2.98388 325.18 -2.17582C325.54 -1.36443 331.697 0.244194 332.399 -0.139763C333.117 -0.532112 334.533 -6.69421 334.194 -7.27769C333.927 -7.73724 328.066 -9.45286 327.261 -9.20736Z" stroke="#73AFD7" stroke-linecap="round"/>
<path d="M-11.6057 -45.3534C-17.8295 -43.2045 -21.9341 -22.0042 -24.5566 -14.1766C-27.0525 -6.72685 -33.3147 11.7206 -31.7533 17.5704C-30.2579 23.1727 -18.2802 25.5643 -13.3207 27.1466C-7.74927 28.9241 2.96423 33.5284 8.85083 29.196C13.4067 25.843 17.6729 2.82894 19.7042 -3.76196C22.1426 -11.6729 27.4773 -27.0565 25.6119 -32.7599C23.3922 -39.5468 14.3145 -40.4989 8.22083 -42.479C2.27319 -44.4116 -5.96716 -47.3003 -11.6057 -45.3534ZM-16.9277 -15.6909C-17.8381 -15.4366 -19.5154 -9.52628 -19.1753 -8.71C-18.8339 -7.89039 -12.7172 -6.13813 -12.0059 -6.50552C-11.2791 -6.88094 -9.71777 -13.0082 -10.0427 -13.5995C-10.2988 -14.0652 -16.1167 -15.9175 -16.9277 -15.6909ZM-9.64404 -38.1505C-10.5544 -37.8961 -14.3071 -24.9443 -13.9672 -24.1281C-13.6257 -23.3085 14.594 -15.2231 15.3053 -15.5905C16.032 -15.966 19.4846 -29.1769 19.1597 -29.7681C18.9037 -30.2338 -8.83301 -38.3771 -9.64404 -38.1505ZM-20.4807 -3.35896C-21.3826 -3.07597 -22.8698 2.8843 -22.5038 3.68943C-22.1362 4.49784 -15.9666 6.05599 -15.2673 5.66631C-14.553 5.2681 -13.1886 -0.905357 -13.5323 -1.48605C-13.8031 -1.94346 -19.6774 -3.61103 -20.4807 -3.35896ZM-8.20813 -0.0475998C-9.10999 0.23539 -10.5972 6.19566 -10.2312 7.00074C-9.86365 7.80915 -3.69385 9.36735 -2.99475 8.97767C-2.2804 8.57946 -0.916016 2.406 -1.25977 1.82526C-1.53052 1.36793 -7.40479 -0.299721 -8.20813 -0.0475998ZM-11.4285 12.4483C-12.3302 12.7313 -13.8174 18.6915 -13.4514 19.4966C-13.084 20.305 -6.91418 21.8633 -6.21497 21.4735C-5.50073 21.0754 -4.13623 14.9019 -4.47998 14.3212C-4.75073 13.8638 -10.625 12.1962 -11.4285 12.4483ZM3.64014 3.2257C2.7384 3.50869 -2.07031 21.6457 -1.70435 22.4507C-1.33679 23.2591 4.99011 25.2211 5.68933 24.8314C6.40369 24.4332 11.3253 5.82453 10.9816 5.24384C10.7108 4.78648 4.4436 2.97358 3.64014 3.2257ZM-23.7296 8.96181C-24.6315 9.24485 -26.1187 15.2051 -25.7527 16.0102C-25.3851 16.8186 -19.2155 18.3768 -18.5162 17.9871C-17.8019 17.5889 -16.4375 11.4154 -16.7812 10.8347C-17.052 10.3773 -22.9263 8.70974 -23.7296 8.96181ZM-5.224 -12.3106C-6.11353 -11.9916 -7.35645 -5.97631 -6.95789 -5.18664C-6.55762 -4.39368 -0.329468 -3.08511 0.353149 -3.50265C1.05078 -3.92924 2.16223 -10.1526 1.79504 -10.719C1.50586 -11.1651 -4.43164 -12.5948 -5.224 -12.3106ZM7.26099 -9.20736C6.35681 -8.93174 4.82031 -2.98388 5.17957 -2.17582C5.54028 -1.36443 11.6969 0.244194 12.3993 -0.139763C13.1169 -0.532112 14.5325 -6.69421 14.1936 -7.27769C13.9265 -7.73724 8.06641 -9.45286 7.26099 -9.20736Z" stroke="#73AFD7" stroke-linecap="round"/>
<path d="M214.592 144.17C212.024 148.744 206.124 161.313 210.65 169.846C215.177 178.38 226.588 179.36 236.204 173.953C245.819 168.546 251.724 160.972 246.416 151.666C241.107 142.36 225.407 140.057 223.871 139.818M221.438 136.524C221.98 132.498 222.056 128.098 220.281 127.255C218.474 126.549 218.201 128.782 217.256 128.837C216.255 128.895 214.92 127.014 213.154 127.825C210.766 128.921 212.17 130.856 211.312 131.649C210.568 132.335 207.678 130.71 206.424 133.358C205.17 136.006 210.72 138.457 213.304 140.052M224.429 166.333C226.844 168.033 235.877 165.25 233.51 160.006C230.846 154.102 222.589 162.75 220.552 156.931C218.908 152.239 225.817 150.03 228.928 151.256M222.251 148.965C223.002 151.319 229.679 163.009 231.46 168.428M223.844 139.808C222.865 141.108 216.224 144.02 214.57 144.178C212.859 144.341 211.582 141.773 213.39 140.405C214.335 139.69 218.461 137.238 221.431 136.501C223.857 135.899 224.537 138.889 223.844 139.808Z" stroke="#73AFD7" stroke-linecap="round"/>
<path d="M214.592 -15.8307C212.024 -11.2569 206.124 1.3117 210.65 9.84533C215.177 18.379 226.588 19.3593 236.204 13.9522C245.819 8.54514 251.724 0.971016 246.416 -8.33512C241.107 -17.6412 225.407 -19.9437 223.871 -20.1831M221.438 -23.4774C221.98 -27.5035 222.056 -31.9033 220.281 -32.7463C218.474 -33.4517 218.201 -31.2195 217.256 -31.1645C216.255 -31.1063 214.92 -32.9873 213.154 -32.1762C210.766 -31.0801 212.17 -29.1453 211.312 -28.3526C210.568 -27.6659 207.678 -29.2915 206.424 -26.6435C205.17 -23.9954 210.72 -21.5442 213.304 -19.9488M224.429 6.3319C226.844 8.03187 235.877 5.24871 233.51 0.00450897C230.846 -5.89948 222.589 2.74924 220.552 -3.07C218.908 -7.7625 225.817 -9.97088 228.928 -8.74491M222.251 -11.0363C223.002 -8.68172 229.679 3.00777 231.46 8.42695M223.844 -20.1931C222.865 -18.8927 216.224 -15.9812 214.57 -15.8236C212.859 -15.6604 211.582 -18.2284 213.39 -19.5962C214.335 -20.3108 218.461 -22.7632 221.431 -23.4998C223.857 -24.1016 224.537 -21.1123 223.844 -20.1931Z" stroke="#73AFD7" stroke-linecap="round"/>
<path d="M103.808 99.9144C98.7573 100.87 85.6926 104.337 82.8316 112.896C79.9705 121.455 87.313 130.359 97.9179 134.015C108.523 137.671 118.051 137.29 120.909 127.685C123.766 118.081 114.341 105.241 113.428 103.976M114.05 100.173C117.286 98.0823 120.458 95.4217 119.805 93.6107C119.032 91.8609 117.258 93.0404 116.553 92.3866C115.807 91.6951 116.2 89.5627 114.381 88.7787C111.923 87.7191 111.54 89.9344 110.374 89.7995C109.363 89.6826 108.48 86.5769 105.719 87.2994C102.959 88.022 105.131 93.5712 105.82 96.4353M95.0266 120.748C95.5222 123.553 103.857 128.405 105.907 123.447C108.216 117.865 96.2704 117.199 98.96 112.125C101.129 108.033 107.56 111.694 108.882 114.714M105.803 108.443C104.664 110.443 101.081 122.515 98.4933 127.154M113.417 103.951C111.805 104.041 105.064 101.008 103.787 99.9025C102.467 98.7587 103.387 96.245 105.63 96.7157C106.802 96.9616 111.447 98.4491 114.061 100.154C116.196 101.547 114.556 103.887 113.417 103.951Z" stroke="#73AFD7" stroke-linecap="round"/>
</g>
<defs>
<clipPath id="clip0_2003_213">
<rect width="320" height="160" fill="white"/>
</clipPath>
</defs>
</svg>
